<svg xmlns="http://www.w3.org/2000/svg" width="70" height="70" viewBox="0 0 70 70">
  <g id="Whatsapp" transform="translate(-1784 -952)">
    <circle id="Elipse_2" data-name="Elipse 2" cx="35" cy="35" r="35" transform="translate(1784 952)" fill="#58b006"/>
    <path id="whatsapp-2" data-name="whatsapp" d="M34.065,5.78A19.713,19.713,0,0,0,3.046,29.56L.25,39.773,10.7,37.032a19.688,19.688,0,0,0,9.418,2.4h.008A19.717,19.717,0,0,0,34.065,5.78ZM20.124,36.1h-.007a16.361,16.361,0,0,1-8.337-2.283l-.6-.355-6.2,1.626,1.655-6.045-.39-.62A16.381,16.381,0,1,1,20.124,36.1Zm8.985-12.269c-.492-.247-2.914-1.438-3.365-1.6s-.78-.246-1.108.247-1.272,1.6-1.559,1.931-.574.37-1.067.123a13.451,13.451,0,0,1-3.96-2.444,14.854,14.854,0,0,1-2.739-3.411c-.287-.493,0-.734.216-1.005a13.93,13.93,0,0,0,1.231-1.684.906.906,0,0,0-.041-.863c-.123-.246-1.108-2.67-1.518-3.657-.4-.96-.806-.83-1.108-.845-.287-.014-.615-.017-.944-.017a1.809,1.809,0,0,0-1.313.616A5.523,5.523,0,0,0,10.11,15.33a9.58,9.58,0,0,0,2.011,5.094c.246.329,3.473,5.3,8.412,7.436A28.187,28.187,0,0,0,23.34,28.9a6.751,6.751,0,0,0,3.1.2c.946-.142,2.913-1.191,3.324-2.342a4.115,4.115,0,0,0,.287-2.342c-.123-.205-.451-.328-.944-.575Zm0,0" transform="translate(1799.281 967.114)" fill="#fff" fill-rule="evenodd"/>
  </g>
</svg>
