<svg xmlns="http://www.w3.org/2000/svg" width="160" height="77.801" viewBox="0 0 160 77.801">
  <g id="Logotema" transform="translate(-1883.436 -1059.755)">
    <g id="Grupo_38" data-name="Grupo 38" transform="translate(1883.436 1059.755)">
      <path id="Trazado_48" data-name="Trazado 48" d="M1951.04,1067.211l-2.049-6.893h-62.97l-2.047,6.893-.538-.159,2.166-7.3h63.81l2.167,7.3Z" transform="translate(-1883.436 -1059.755)" fill="#fff"/>
    </g>
    <path id="Trazado_49" data-name="Trazado 49" d="M1884.055,1102.1c-.27,0-.4-.153-.4-.455v-32.223c0-.3.135-.454.4-.454h5.769a.4.4,0,0,1,.454.454v32.223a.4.4,0,0,1-.454.455Zm2.631-3.087q0,.354.278.354c.185,0,.28-.118.28-.354V1072c0-.167-.094-.253-.28-.253s-.278.086-.278.253Z" transform="translate(0.087 3.732)" fill="#fff"/>
    <path id="Trazado_50" data-name="Trazado 50" d="M1909.16,1069.419a.4.4,0,0,1,.457-.454h5.817a.4.4,0,0,1,.455.454V1101.9a.4.4,0,0,1-.455.457h-5.615a.431.431,0,0,1-.454-.255l-7.388-16.644V1101.9a.4.4,0,0,1-.454.457h-5.769c-.27,0-.4-.153-.4-.457v-32.479c0-.3.135-.454.4-.454h5.97a.427.427,0,0,1,.354.253l7.082,16.341Zm3.643,2.58c0-.167-.11-.268-.328-.3s-.33.069-.33.3v26l-13.2-26.1a.369.369,0,0,0-.33-.153c-.152,0-.228.086-.228.253v27.268c0,.236.1.354.3.354s.3-.118.3-.354v-25.951l13.153,26.054a.406.406,0,0,0,.4.227.249.249,0,0,0,.253-.278Z" transform="translate(4.828 3.732)" fill="#fff"/>
    <path id="Trazado_51" data-name="Trazado 51" d="M1930.9,1069.419a.4.4,0,0,1,.457-.454h5.817a.4.4,0,0,1,.457.454V1101.9a.4.4,0,0,1-.457.457h-5.616a.432.432,0,0,1-.454-.255l-7.388-16.644V1101.9a.4.4,0,0,1-.454.457H1917.5c-.27,0-.4-.153-.4-.457v-32.479c0-.3.135-.454.4-.454h5.97a.427.427,0,0,1,.354.253l7.083,16.341Zm3.642,2.58q0-.251-.327-.3c-.219-.032-.33.069-.33.3v26l-13.2-26.1a.369.369,0,0,0-.329-.153c-.153,0-.229.086-.229.253v27.268c0,.236.1.354.3.354s.3-.118.3-.354v-25.951l13.153,26.054a.407.407,0,0,0,.406.227.249.249,0,0,0,.251-.278Z" transform="translate(13.64 3.732)" fill="#fff"/>
    <path id="Trazado_52" data-name="Trazado 52" d="M1950.006,1068.641q6.474,0,9.309,3.035,2.226,2.426,2.226,7.437v13.305q0,5.16-2.226,7.538a9.086,9.086,0,0,1-3.744,2.275,21.07,21.07,0,0,1-11.207,0,9.1,9.1,0,0,1-3.717-2.275,7.985,7.985,0,0,1-1.694-3.062,14.965,14.965,0,0,1-.582-4.476v-13.305a14.265,14.265,0,0,1,.582-4.376,9.055,9.055,0,0,1,1.694-3.111,8.886,8.886,0,0,1,3.744-2.253A18.559,18.559,0,0,1,1950.006,1068.641Zm-8.45,23.372a10.349,10.349,0,0,0,.482,3.237,6.7,6.7,0,0,0,1.543,2.58,7.873,7.873,0,0,0,5.816,2.025h1.317a7.293,7.293,0,0,0,7.842-7.842v-12.546a8.087,8.087,0,0,0-2-5.919,7.862,7.862,0,0,0-5.843-2.025H1949.4q-3.893,0-5.867,2.025a8.143,8.143,0,0,0-1.974,5.919Zm7.841,7.184a7.325,7.325,0,0,1-5.412-1.872,7.179,7.179,0,0,1-1.922-5.312v-12.546a6.54,6.54,0,0,1,7.334-7.337h1.317q7.182,0,7.182,7.337v12.546a8.572,8.572,0,0,1-.5,2.985,6.551,6.551,0,0,1-1.518,2.376,7.623,7.623,0,0,1-2.3,1.34,8.1,8.1,0,0,1-2.859.482Zm5.415-18.416a7.593,7.593,0,0,0-.4-2.705,4.36,4.36,0,0,0-1.063-1.644,3.345,3.345,0,0,0-1.467-.811,6.729,6.729,0,0,0-1.619-.2h-.607a3.983,3.983,0,0,0-3.467,1.44,6.6,6.6,0,0,0-1.036,3.921V1090.9a7.784,7.784,0,0,0,.405,2.732,4.229,4.229,0,0,0,1.035,1.644,3.513,3.513,0,0,0,1.443.808,5.95,5.95,0,0,0,1.619.227h.607a3.916,3.916,0,0,0,3.464-1.491,7.008,7.008,0,0,0,1.089-3.921Z" transform="translate(22.263 3.601)" fill="#fff"/>
    <path id="Trazado_53" data-name="Trazado 53" d="M1972.074,1090.212l5.715-20.943c.135-.2.27-.3.4-.3h5.769a.462.462,0,0,1,.378.151.378.378,0,0,1,.027.4l-8.754,32.531a.458.458,0,0,1-.4.3h-6.273a.327.327,0,0,1-.354-.3l-8.751-32.531c-.069-.369.083-.555.454-.555h5.819c.134,0,.269.1.405.3Zm-8.55-18.312c-.069-.2-.2-.271-.381-.2s-.244.187-.177.354l8.4,27.016c.1.371.3.563.605.582s.523-.177.658-.582l8.094-27.016c.067-.167.008-.278-.177-.327a.282.282,0,0,0-.38.177l-8.2,26.963Z" transform="translate(30.954 3.732)" fill="#fff"/>
    <path id="Trazado_54" data-name="Trazado 54" d="M1988.418,1069.269c.067-.2.185-.3.354-.3h6.273c.168,0,.287.1.354.3l8.753,32.528q.1.559-.457.558h-5.766a.324.324,0,0,1-.354-.3l-1.973-7.083h-7.386l-1.924,7.083c-.067.2-.184.3-.353.3h-5.818q-.559,0-.456-.558Zm11.534,30a.289.289,0,0,0,.354.2c.169-.034.219-.152.153-.356l-8.094-26.912a.584.584,0,0,0-.582-.531c-.322-.017-.514.16-.582.531l-7.842,26.912c-.069.17-.01.288.177.356a.26.26,0,0,0,.378-.152l2.226-7.64h11.484Zm-8.145-26.863,5.615,18.617h-11.13Zm2.226,16.241-2.175-7.641-2.024,7.641Z" transform="translate(38.994 3.732)" fill="#fff"/>
    <g id="Grupo_44" data-name="Grupo 44" transform="translate(1883.703 1114.682)">
      <g id="Grupo_39" data-name="Grupo 39" transform="translate(0 0.156)">
        <path id="Trazado_55" data-name="Trazado 55" d="M1884.348,1120.609c0,.13-.077.2-.236.2s-.236-.065-.236-.2v-21.17a.286.286,0,0,1,.236-.236h5.313a10.42,10.42,0,0,1,1.317.118,5.088,5.088,0,0,1,1.713.59,4.282,4.282,0,0,1,1.494,1.417,4.557,4.557,0,0,1,.631,2.557v4.919a5.649,5.649,0,0,1-.906,3.424,4.6,4.6,0,0,1-3.227,1.535l3.307,6.688c.052.184.005.3-.139.336s-.242.007-.3-.1l-3.3-6.806h-5.667Zm9.76-16.724a6.735,6.735,0,0,0-.138-1.2,3.417,3.417,0,0,0-.611-1.379,3.8,3.8,0,0,0-1.415-1.121,5.694,5.694,0,0,0-2.518-.471h-5.077v13.652h4.723a10.718,10.718,0,0,0,1.848-.157,4.166,4.166,0,0,0,1.615-.628,3.331,3.331,0,0,0,1.14-1.379,5.587,5.587,0,0,0,.434-2.4Z" transform="translate(-1883.525 -1098.851)" fill="#fff"/>
        <path id="Trazado_56" data-name="Trazado 56" d="M1884.213,1121.257a.537.537,0,0,1-.587-.548V1099.54a.628.628,0,0,1,.587-.588h5.312a10.472,10.472,0,0,1,1.366.121,5.466,5.466,0,0,1,1.833.629,4.623,4.623,0,0,1,1.619,1.53,4.919,4.919,0,0,1,.688,2.753v4.918a6.019,6.019,0,0,1-.974,3.634,4.607,4.607,0,0,1-2.983,1.594l3.1,6.265a.677.677,0,0,1-.016.568.551.551,0,0,1-.346.26.568.568,0,0,1-.7-.278l-3.211-6.615h-5.1v6.377A.537.537,0,0,1,1884.213,1121.257Zm.588-8.139h4.371a10.249,10.249,0,0,0,1.789-.153,3.826,3.826,0,0,0,1.478-.575,2.993,2.993,0,0,0,1.019-1.237,5.271,5.271,0,0,0,.4-2.248v-4.918a6.528,6.528,0,0,0-.131-1.136,3.134,3.134,0,0,0-.549-1.237,3.491,3.491,0,0,0-1.289-1.012,5.387,5.387,0,0,0-2.362-.435H1884.8Z" transform="translate(-1883.626 -1098.952)" fill="#fff"/>
      </g>
      <g id="Grupo_40" data-name="Grupo 40" transform="translate(15.149)">
        <path id="Trazado_57" data-name="Trazado 57" d="M1895.325,1117.977a.218.218,0,0,1,.079-.3.24.24,0,0,1,.316.059,4.463,4.463,0,0,0,.707.926,6.048,6.048,0,0,0,1.162.925,6.991,6.991,0,0,0,1.612.727,6.646,6.646,0,0,0,2.026.3,7.16,7.16,0,0,0,1.259-.136,4.424,4.424,0,0,0,1.515-.611,4.6,4.6,0,0,0,1.378-1.376,5.915,5.915,0,0,0,.845-2.4,4.224,4.224,0,0,0-.9-3.307,11.546,11.546,0,0,0-4.094-2.792l-1.22-.59q-1.143-.512-2.105-1.024a9.531,9.531,0,0,1-1.692-1.122,4.5,4.5,0,0,1-1.14-1.415,4.119,4.119,0,0,1-.413-1.91,4.5,4.5,0,0,1,.49-2.143,4.316,4.316,0,0,1,1.319-1.515,5.922,5.922,0,0,1,1.889-.885,8.274,8.274,0,0,1,2.242-.3,5.5,5.5,0,0,1,1.81.274,5.667,5.667,0,0,1,1.378.689,6.918,6.918,0,0,1,1,.846,9.347,9.347,0,0,1,.649.748c.13.159.13.282,0,.375s-.264.059-.395-.1a5.691,5.691,0,0,0-.63-.767,5.3,5.3,0,0,0-.923-.767,5.158,5.158,0,0,0-1.241-.59,5.236,5.236,0,0,0-1.652-.236,7.954,7.954,0,0,0-2.006.254,5.242,5.242,0,0,0-1.752.808A4.289,4.289,0,0,0,1895.6,1102a4.234,4.234,0,0,0-.1,3.679,4.067,4.067,0,0,0,1.043,1.28,8.881,8.881,0,0,0,1.594,1.021c.617.316,1.291.63,2.028.946l1.258.551q1.062.55,2.087,1.14a8.547,8.547,0,0,1,1.789,1.359,5.368,5.368,0,0,1,1.182,1.771,4.782,4.782,0,0,1,.254,2.379,5.6,5.6,0,0,1-.59,2.046,5.371,5.371,0,0,1-1.2,1.554,5.211,5.211,0,0,1-1.692,1,5.827,5.827,0,0,1-2.026.354,7.09,7.09,0,0,1-1.71-.216,8.274,8.274,0,0,1-1.692-.61,6.913,6.913,0,0,1-1.475-.963A3.92,3.92,0,0,1,1895.325,1117.977Z" transform="translate(-1894.305 -1098.74)" fill="#fff"/>
        <path id="Trazado_58" data-name="Trazado 58" d="M1901.329,1121.538a7.6,7.6,0,0,1-1.795-.226,8.785,8.785,0,0,1-1.763-.635,7.333,7.333,0,0,1-1.55-1.012,4.293,4.293,0,0,1-1.113-1.436l-.01-.019a.564.564,0,0,1,.218-.723.585.585,0,0,1,.751.105l.062.083a4.141,4.141,0,0,0,.654.849,5.654,5.654,0,0,0,1.093.87,6.72,6.72,0,0,0,1.533.692,6.342,6.342,0,0,0,1.92.278,6.717,6.717,0,0,0,1.2-.132,4.039,4.039,0,0,0,1.393-.563,4.235,4.235,0,0,0,1.272-1.275,5.61,5.61,0,0,0,.79-2.258,3.846,3.846,0,0,0-.831-3.03,11.3,11.3,0,0,0-3.967-2.7l-1.225-.593c-.763-.342-1.48-.69-2.117-1.029a9.95,9.95,0,0,1-1.754-1.164,4.84,4.84,0,0,1-1.227-1.526,4.5,4.5,0,0,1-.453-2.067,4.867,4.867,0,0,1,.533-2.309,4.689,4.689,0,0,1,1.426-1.637,6.335,6.335,0,0,1,2-.937,7.745,7.745,0,0,1,4.261-.014,6.1,6.1,0,0,1,1.464.734,7.294,7.294,0,0,1,1.055.891,9.475,9.475,0,0,1,.676.779.643.643,0,0,1,.164.493.542.542,0,0,1-.242.379.612.612,0,0,1-.869-.161,5.948,5.948,0,0,0-.613-.748,5.039,5.039,0,0,0-.864-.718,4.8,4.8,0,0,0-1.158-.548,6.593,6.593,0,0,0-3.458.025,4.929,4.929,0,0,0-1.636.752,4,4,0,0,0-1.138,1.266,3.881,3.881,0,0,0-.092,3.344,3.728,3.728,0,0,0,.954,1.168,8.377,8.377,0,0,0,1.529.981c.6.306,1.273.621,2.007.936l1.26.551c.734.381,1.435.763,2.121,1.158a8.979,8.979,0,0,1,1.862,1.415,5.72,5.72,0,0,1,1.259,1.885,5.149,5.149,0,0,1,.278,2.553,5.991,5.991,0,0,1-.627,2.168,5.824,5.824,0,0,1-1.278,1.655,5.607,5.607,0,0,1-1.806,1.069A6.177,6.177,0,0,1,1901.329,1121.538Zm-5.579-3.6Z" transform="translate(-1894.406 -1098.841)" fill="#fff"/>
      </g>
      <g id="Grupo_41" data-name="Grupo 41" transform="translate(30.257 0.156)">
        <path id="Trazado_59" data-name="Trazado 59" d="M1917.487,1099.2a.256.256,0,0,1,.295.257c.014.17-.084.256-.295.256h-5.548v20.853c0,.132-.084.2-.254.2s-.256-.065-.256-.2v-20.853H1905.6c-.131,0-.2-.086-.2-.256s.065-.257.2-.257Z" transform="translate(-1905.056 -1098.851)" fill="#fff"/>
        <path id="Trazado_60" data-name="Trazado 60" d="M1911.785,1121.217a.548.548,0,0,1-.607-.548v-20.5h-5.472a.61.61,0,0,1,0-1.214h11.883a.607.607,0,0,1,.645.58.56.56,0,0,1-.142.443.652.652,0,0,1-.5.191h-5.2v20.5A.548.548,0,0,1,1911.785,1121.217Z" transform="translate(-1905.157 -1098.952)" fill="#fff"/>
      </g>
      <g id="Grupo_42" data-name="Grupo 42" transform="translate(46.981 0.156)">
        <path id="Trazado_61" data-name="Trazado 61" d="M1917.308,1099.518a.279.279,0,0,1,.316-.316h9.049q.276,0,.236.257c-.025.17-.1.256-.236.256h-8.853v9.758h7.241c.129,0,.2.091.2.274s-.066.275-.2.275h-7.241v10.27h8.853c.132,0,.211.08.236.236s-.052.236-.236.236h-9.049a.278.278,0,0,1-.316-.315Z" transform="translate(-1916.957 -1098.851)" fill="#fff"/>
        <path id="Trazado_62" data-name="Trazado 62" d="M1926.775,1121.217h-9.05a.624.624,0,0,1-.666-.666v-20.933a.624.624,0,0,1,.666-.666h9.05a.583.583,0,0,1,.466.19.567.567,0,0,1,.117.469.585.585,0,0,1-.583.555h-8.5v9.056h6.889a.557.557,0,0,1,.548.627.551.551,0,0,1-.548.626h-6.889v9.567h8.5a.579.579,0,0,1,.583.53.544.544,0,0,1-.111.454A.59.59,0,0,1,1926.775,1121.217Z" transform="translate(-1917.058 -1098.952)" fill="#fff"/>
      </g>
      <g id="Grupo_43" data-name="Grupo 43" transform="translate(61.303 0.076)">
        <path id="Trazado_63" data-name="Trazado 63" d="M1934.15,1099.147a11.837,11.837,0,0,1,2.261.216,6.65,6.65,0,0,1,2.028.726,4.339,4.339,0,0,1,1.474,1.358,3.609,3.609,0,0,1,.572,2.066c0,.211-.093.309-.276.3a.264.264,0,0,1-.275-.3,5.914,5.914,0,0,0-.119-.787,3.12,3.12,0,0,0-.687-1.338,4.865,4.865,0,0,0-1.733-1.258,7.709,7.709,0,0,0-3.245-.552,6.751,6.751,0,0,0-4.721,1.4,5.858,5.858,0,0,0-1.5,4.466v9.483q0,3.149,1.654,4.349a7.639,7.639,0,0,0,4.564,1.2,7.015,7.015,0,0,0,4.565-1.3q1.572-1.3,1.572-4.289a.237.237,0,0,1,.473,0q0,3.383-1.751,4.7a7.92,7.92,0,0,1-4.859,1.318,7.761,7.761,0,0,1-4.978-1.358q-1.674-1.355-1.674-4.623v-9.483a8.61,8.61,0,0,1,.454-3.01,4.637,4.637,0,0,1,1.3-1.928,5.063,5.063,0,0,1,2.085-1.043A11.478,11.478,0,0,1,1934.15,1099.147Z" transform="translate(-1927.148 -1098.793)" fill="#fff"/>
        <path id="Trazado_64" data-name="Trazado 64" d="M1934.25,1121.357a8.124,8.124,0,0,1-5.2-1.435c-1.2-.97-1.8-2.617-1.8-4.9v-9.483a9,9,0,0,1,.475-3.134,5.015,5.015,0,0,1,1.4-2.072,5.4,5.4,0,0,1,2.229-1.115,12.575,12.575,0,0,1,5.229-.1,7.043,7.043,0,0,1,2.132.766,4.689,4.689,0,0,1,1.594,1.467,3.978,3.978,0,0,1,.631,2.263.65.65,0,0,1-.19.5.59.59,0,0,1-.463.147.613.613,0,0,1-.6-.645,5.362,5.362,0,0,0-.112-.721,2.791,2.791,0,0,0-.615-1.183,4.553,4.553,0,0,0-1.609-1.162,7.447,7.447,0,0,0-3.1-.517,6.454,6.454,0,0,0-4.481,1.3,5.562,5.562,0,0,0-1.384,4.21v9.483c0,1.97.507,3.338,1.508,4.064a7.349,7.349,0,0,0,4.358,1.133,6.721,6.721,0,0,0,4.341-1.217,4.964,4.964,0,0,0,1.446-4.019.588.588,0,0,1,1.176,0c0,2.362-.638,4.037-1.892,4.983A8.3,8.3,0,0,1,1934.25,1121.357Z" transform="translate(-1927.249 -1098.896)" fill="#fff"/>
      </g>
    </g>
    <g id="Grupo_45" data-name="Grupo 45" transform="translate(1964.622 1113.349)">
      <path id="Trazado_65" data-name="Trazado 65" d="M1974.651,1102.391a1.5,1.5,0,0,0-1.2.516,2.122,2.122,0,0,0-.441,1.425,2,2,0,0,0,.447,1.38,1.515,1.515,0,0,0,1.2.5,1.442,1.442,0,0,0,1.175-.495,2.154,2.154,0,0,0,.41-1.408,2.189,2.189,0,0,0-.41-1.421A1.438,1.438,0,0,0,1974.651,1102.391Z" transform="translate(-1928.32 -1096.07)" fill="#fff"/>
      <path id="Trazado_66" data-name="Trazado 66" d="M1972.919,1111.027a.556.556,0,0,0,.18.426.7.7,0,0,0,.488.164.9.9,0,0,0,.7-.3,1.062,1.062,0,0,0,.269-.746v-.332l-.894.115C1973.167,1110.424,1972.919,1110.646,1972.919,1111.027Z" transform="translate(-1928.357 -1092.888)" fill="#fff"/>
      <path id="Trazado_67" data-name="Trazado 67" d="M1955.8,1105.672a1.266,1.266,0,0,0,.968-.411,1.467,1.467,0,0,0,.381-1.04v-.49l-1.185.163a1.921,1.921,0,0,0-.826.272.78.78,0,0,0-.28.689.752.752,0,0,0,.257.589A.994.994,0,0,0,1955.8,1105.672Z" transform="translate(-1935.677 -1095.527)" fill="#fff"/>
      <path id="Trazado_68" data-name="Trazado 68" d="M1985.579,1102.772a1.116,1.116,0,0,0-.9-.381,1.272,1.272,0,0,0-.947.4,1.806,1.806,0,0,0-.481,1.043h2.657A1.6,1.6,0,0,0,1985.579,1102.772Z" transform="translate(-1924.169 -1096.07)" fill="#fff"/>
      <path id="Trazado_69" data-name="Trazado 69" d="M1961.645,1109.143a1.012,1.012,0,0,0-.836.371,1.633,1.633,0,0,0-.3,1.047q0,1.417,1.141,1.417,1.092,0,1.092-1.455Q1962.745,1109.142,1961.645,1109.143Z" transform="translate(-1933.385 -1093.334)" fill="#fff"/>
      <path id="Trazado_70" data-name="Trazado 70" d="M1970.019,1107.848h-.612V1110h.612q1.239,0,1.239-1.086Q1971.258,1107.849,1970.019,1107.848Z" transform="translate(-1929.78 -1093.859)" fill="#fff"/>
      <path id="Trazado_71" data-name="Trazado 71" d="M1952.009,1109.045a.817.817,0,0,0-.631.3,1.369,1.369,0,0,0-.325.755h1.811Q1952.865,1109.045,1952.009,1109.045Z" transform="translate(-1937.218 -1093.373)" fill="#fff"/>
      <path id="Trazado_72" data-name="Trazado 72" d="M1964.419,1103.731l-1.186.163a1.923,1.923,0,0,0-.826.272.779.779,0,0,0-.278.689.747.747,0,0,0,.257.589.994.994,0,0,0,.684.228,1.263,1.263,0,0,0,.967-.411,1.461,1.461,0,0,0,.382-1.04Z" transform="translate(-1932.73 -1095.527)" fill="#fff"/>
      <path id="Trazado_73" data-name="Trazado 73" d="M1990.716,1109.143a.929.929,0,0,0-.791.394,1.855,1.855,0,0,0-.288,1.11,1.566,1.566,0,0,0,.273.974.9.9,0,0,0,.749.357.927.927,0,0,0,.762-.363,1.485,1.485,0,0,0,.291-.959v-.389a1.194,1.194,0,0,0-.277-.794A.89.89,0,0,0,1990.716,1109.143Z" transform="translate(-1921.581 -1093.334)" fill="#fff"/>
      <path id="Trazado_74" data-name="Trazado 74" d="M1978.6,1106.215a1.316,1.316,0,0,0,1.121-.548,2.5,2.5,0,0,0,.406-1.522,1.994,1.994,0,0,0-.378-1.287,1.26,1.26,0,0,0-1.03-.467,1.39,1.39,0,0,0-1.1.478,1.757,1.757,0,0,0-.419,1.2v.686a1.451,1.451,0,0,0,.4,1.034A1.309,1.309,0,0,0,1978.6,1106.215Z" transform="translate(-1926.624 -1096.07)" fill="#fff"/>
      <path id="Trazado_75" data-name="Trazado 75" d="M1990.877,1102.772a1.117,1.117,0,0,0-.9-.381,1.271,1.271,0,0,0-.945.4,1.8,1.8,0,0,0-.481,1.043h2.656A1.6,1.6,0,0,0,1990.877,1102.772Z" transform="translate(-1922.021 -1096.07)" fill="#fff"/>
      <path id="Trazado_76" data-name="Trazado 76" d="M1941.208,1097.893V1122.1h78.814v-24.207Zm55.369,5.774h.789v1.013h.019a1.723,1.723,0,0,1,.514-.809,1.17,1.17,0,0,1,.773-.291,1.325,1.325,0,0,1,.471.068v.817a.968.968,0,0,0-.6-.157,1,1,0,0,0-.843.475,2.191,2.191,0,0,0-.338,1.3v2.508h-.789Zm-5.586-2.364h.787v3.228h.02a1.86,1.86,0,0,1,1.7-.979,1.809,1.809,0,0,1,1.483.659,2.732,2.732,0,0,1,.535,1.771,3.042,3.042,0,0,1-.6,1.976,1.994,1.994,0,0,1-1.641.743,1.618,1.618,0,0,1-1.475-.826h-.02v.711h-.787Zm-9.841,6.259a2.328,2.328,0,0,0,1.417.475q1.037,0,1.037-.691a.607.607,0,0,0-.089-.335.894.894,0,0,0-.239-.242,1.985,1.985,0,0,0-.355-.19c-.136-.056-.284-.114-.44-.176a5.3,5.3,0,0,1-.575-.263,1.709,1.709,0,0,1-.413-.3,1.124,1.124,0,0,1-.25-.375,1.337,1.337,0,0,1-.083-.5,1.185,1.185,0,0,1,.157-.611,1.433,1.433,0,0,1,.423-.448,1.979,1.979,0,0,1,.6-.27,2.645,2.645,0,0,1,.7-.091,2.818,2.818,0,0,1,1.142.221v.8a2.238,2.238,0,0,0-1.249-.355,1.448,1.448,0,0,0-.4.051,1,1,0,0,0-.306.142.68.68,0,0,0-.2.218.584.584,0,0,0-.07.281.679.679,0,0,0,.07.323.725.725,0,0,0,.2.231,1.615,1.615,0,0,0,.327.183c.128.053.274.114.437.177a6.278,6.278,0,0,1,.586.256,2.138,2.138,0,0,1,.443.3,1.162,1.162,0,0,1,.281.384,1.362,1.362,0,0,1-.063,1.147,1.372,1.372,0,0,1-.43.448,1.982,1.982,0,0,1-.62.263,3.067,3.067,0,0,1-.735.087,2.806,2.806,0,0,1-1.315-.292Zm-13.171-6.259h.787v7.282h-.787Zm-6.774,4.371,1.474-.205q0-1.254-1.012-1.255a2.424,2.424,0,0,0-1.6.606v-.807a3.043,3.043,0,0,1,1.671-.461q1.735,0,1.734,1.834v3.2h-.788v-.769h-.018a1.648,1.648,0,0,1-1.514.884,1.614,1.614,0,0,1-1.15-.389,1.346,1.346,0,0,1-.416-1.033Q1959.582,1105.9,1961.206,1105.674Zm-8.37,10.937a1.786,1.786,0,0,1-.593.635,2.6,2.6,0,0,1-.873.347,4.936,4.936,0,0,1-1.05.106,5.877,5.877,0,0,1-1.077-.1,3.184,3.184,0,0,1-.887-.289v-1.536a2.929,2.929,0,0,0,1.9.7,2.287,2.287,0,0,0,.51-.052,1.237,1.237,0,0,0,.366-.148.657.657,0,0,0,.219-.221.569.569,0,0,0,.072-.275.6.6,0,0,0-.115-.361,1.22,1.22,0,0,0-.315-.292,3.1,3.1,0,0,0-.474-.26c-.182-.083-.379-.169-.59-.255a3.022,3.022,0,0,1-1.2-.82,1.791,1.791,0,0,1-.4-1.172,1.851,1.851,0,0,1,.218-.926,1.822,1.822,0,0,1,.588-.637,2.618,2.618,0,0,1,.861-.365,4.337,4.337,0,0,1,1.037-.118,6.38,6.38,0,0,1,.954.063,3.977,3.977,0,0,1,.767.2v1.438a2.174,2.174,0,0,0-.378-.212,2.685,2.685,0,0,0-.42-.151,2.934,2.934,0,0,0-.43-.09,3.168,3.168,0,0,0-.4-.028,2.017,2.017,0,0,0-.48.051,1.161,1.161,0,0,0-.365.141.675.675,0,0,0-.23.219.512.512,0,0,0-.081.285.554.554,0,0,0,.09.311,1.046,1.046,0,0,0,.261.258,2.53,2.53,0,0,0,.408.24c.16.079.341.159.541.243a5.886,5.886,0,0,1,.744.368,2.566,2.566,0,0,1,.563.438,1.713,1.713,0,0,1,.361.561,2.226,2.226,0,0,1-.094,1.7Zm.641-13.885a3.287,3.287,0,0,0-1.633-.413,2.508,2.508,0,0,0-1.924.793,2.988,2.988,0,0,0-.737,2.118,2.836,2.836,0,0,0,.689,2.005,2.346,2.346,0,0,0,1.808.748,3.389,3.389,0,0,0,1.8-.461v.781a4.021,4.021,0,0,1-1.9.4,3.072,3.072,0,0,1-2.354-.946,3.5,3.5,0,0,1-.884-2.485,3.658,3.658,0,0,1,.995-2.67,3.373,3.373,0,0,1,2.521-1.019,4.049,4.049,0,0,1,1.623.284Zm4.786,12.827h-3.208q.076,1.069,1.349,1.069a2.632,2.632,0,0,0,1.425-.384v1.095a3.729,3.729,0,0,1-1.772.365,2.291,2.291,0,0,1-2.507-2.5,2.634,2.634,0,0,1,.711-1.941,2.366,2.366,0,0,1,1.748-.717,2.147,2.147,0,0,1,1.665.639,2.459,2.459,0,0,1,.589,1.733Zm.4-6.967h-.788v-2.834q0-1.537-1.142-1.537a1.244,1.244,0,0,0-.97.446,1.654,1.654,0,0,0-.395,1.14v2.787h-.787V1101.3h.787v3.18h.02a1.786,1.786,0,0,1,1.613-.932q1.661,0,1.663,2Zm4.035,5.472a1.738,1.738,0,0,0-1.063-.356,1.4,1.4,0,0,0-1.034.384,1.415,1.415,0,0,0-.382,1.054,1.4,1.4,0,0,0,.365,1.025,1.338,1.338,0,0,0,1,.372,2,2,0,0,0,1.11-.356v1.22a3,3,0,0,1-1.485.3,2.513,2.513,0,0,1-1.834-.686,2.373,2.373,0,0,1-.7-1.773,2.606,2.606,0,0,1,.752-1.976,2.775,2.775,0,0,1,2.01-.724,2.591,2.591,0,0,1,1.259.23Zm3.77-.278h-1.1v1.988c0,.513.2.769.61.769a1.037,1.037,0,0,0,.495-.139v1.124a2.255,2.255,0,0,1-1.013.177q-1.606,0-1.606-1.667v-2.253h-.8v-1.119h.8V1111.6l1.515-.433v1.5h1.1Zm-.583-9a2.193,2.193,0,0,0-.34,1.3v2.508h-.787v-4.918h.787v1.013h.02a1.723,1.723,0,0,1,.515-.809,1.169,1.169,0,0,1,.773-.291,1.314,1.314,0,0,1,.471.068v.817a.965.965,0,0,0-.6-.157A1,1,0,0,0,1965.882,1104.782Zm5.514,12.206a3.065,3.065,0,0,1-3.9.022,2.848,2.848,0,0,1,.027-3.78,2.756,2.756,0,0,1,1.973-.69,2.608,2.608,0,0,1,1.921.69,2.444,2.444,0,0,1,.7,1.823A2.6,2.6,0,0,1,1971.4,1116.988Zm1.481-9.171a1.645,1.645,0,0,1-1.512.884,1.611,1.611,0,0,1-1.15-.389,1.341,1.341,0,0,1-.416-1.033q0-1.377,1.623-1.6l1.474-.205q0-1.254-1.013-1.255a2.418,2.418,0,0,0-1.6.606v-.807a3.039,3.039,0,0,1,1.671-.461q1.733,0,1.733,1.834v3.2h-.787v-.769Zm3.234,6.213a1.318,1.318,0,0,0-.639-.149.923.923,0,0,0-.774.362,1.583,1.583,0,0,0-.277.987v2.349H1972.9v-4.918h1.518v.912h.018a1.312,1.312,0,0,1,1.3-1,1,1,0,0,1,.377.058Zm1.664-6.127a1.387,1.387,0,0,1-.43.448,1.987,1.987,0,0,1-.621.263,3.051,3.051,0,0,1-.734.087,2.812,2.812,0,0,1-1.317-.292v-.846a2.33,2.33,0,0,0,1.417.475q1.037,0,1.038-.691a.607.607,0,0,0-.088-.335.9.9,0,0,0-.241-.242,1.889,1.889,0,0,0-.355-.19c-.135-.056-.282-.114-.438-.176a5.18,5.18,0,0,1-.575-.263,1.684,1.684,0,0,1-.413-.3,1.1,1.1,0,0,1-.25-.375,1.336,1.336,0,0,1-.084-.5,1.173,1.173,0,0,1,.159-.611,1.43,1.43,0,0,1,.422-.448,1.991,1.991,0,0,1,.6-.27,2.629,2.629,0,0,1,.7-.091,2.824,2.824,0,0,1,1.144.221v.8a2.238,2.238,0,0,0-1.249-.355,1.441,1.441,0,0,0-.4.051,1,1,0,0,0-.306.142.687.687,0,0,0-.2.218.583.583,0,0,0-.069.281.679.679,0,0,0,.069.323.728.728,0,0,0,.2.231,1.57,1.57,0,0,0,.326.183c.129.053.275.114.439.177a6.309,6.309,0,0,1,.586.256,2.127,2.127,0,0,1,.441.3,1.143,1.143,0,0,1,.281.384,1.355,1.355,0,0,1-.062,1.147Zm5.8,6.662a2.963,2.963,0,0,1-2,.641h-.742v2.373h-1.55v-6.887h2.43q2.605,0,2.6,2.194A2.107,2.107,0,0,1,1983.573,1114.565Zm5.259,3.014h-1.438v-.707h-.018a1.6,1.6,0,0,1-1.464.826,1.535,1.535,0,0,1-1.128-.4,1.458,1.458,0,0,1-.41-1.085q0-1.43,1.695-1.651l1.335-.177q0-.807-.874-.808a2.986,2.986,0,0,0-1.671.522v-1.142a3.759,3.759,0,0,1,.867-.288,4.57,4.57,0,0,1,1-.125,1.858,1.858,0,0,1,2.1,2.1Zm-1.35-8.879a2.272,2.272,0,0,1-1.741-.69,2.55,2.55,0,0,1-.651-1.827,2.652,2.652,0,0,1,.677-1.935,2.428,2.428,0,0,1,1.83-.7,2.2,2.2,0,0,1,1.716.677,2.682,2.682,0,0,1,.618,1.877,2.642,2.642,0,0,1-.666,1.886A2.327,2.327,0,0,1,1987.481,1108.7Zm6.081,5.357a1.743,1.743,0,0,0-1.062-.356,1.391,1.391,0,0,0-1.034.384,1.415,1.415,0,0,0-.382,1.054,1.4,1.4,0,0,0,.365,1.025,1.338,1.338,0,0,0,1,.372,2,2,0,0,0,1.11-.356v1.22a3,3,0,0,1-1.485.3,2.513,2.513,0,0,1-1.834-.686,2.373,2.373,0,0,1-.7-1.773,2.607,2.607,0,0,1,.752-1.976,2.773,2.773,0,0,1,2.008-.724,2.6,2.6,0,0,1,1.26.23Zm3.9,3.522-1.57-2.439h-.02v2.439h-1.518V1110.3h1.518v4.635h.02l1.464-2.271h1.8l-1.764,2.31,1.887,2.608Zm3.716,0h-1.518v-4.918h1.518Zm-.118-5.917a.9.9,0,0,1-.631.221.893.893,0,0,1-.631-.228.735.735,0,0,1-.245-.56.712.712,0,0,1,.245-.558,1.029,1.029,0,0,1,1.262,0,.713.713,0,0,1,.242.558A.731.731,0,0,1,2001.063,1111.662Zm-1-3.631a2.746,2.746,0,0,1-.6-1.886,2.687,2.687,0,0,1,.651-1.87,2.085,2.085,0,0,1,1.616-.722,1.848,1.848,0,0,1,1.494.624,2.6,2.6,0,0,1,.53,1.734v.413h-3.474a1.838,1.838,0,0,0,.443,1.269,1.526,1.526,0,0,0,1.162.446,2.414,2.414,0,0,0,1.527-.548v.741a2.858,2.858,0,0,1-1.714.471A2.082,2.082,0,0,1,2000.062,1108.031Zm6.949,9.549H2005.5v-2.733c0-.762-.271-1.144-.815-1.144a.81.81,0,0,0-.649.3,1.151,1.151,0,0,0-.254.769v2.8h-1.518v-4.918h1.518v.778h.02a1.736,1.736,0,0,1,1.579-.9q1.634,0,1.633,2.026Zm-.1-11.435a2.688,2.688,0,0,1,.651-1.87,2.084,2.084,0,0,1,1.616-.722,1.849,1.849,0,0,1,1.494.624,2.605,2.605,0,0,1,.53,1.734v.413h-3.474a1.844,1.844,0,0,0,.442,1.269,1.531,1.531,0,0,0,1.164.446,2.418,2.418,0,0,0,1.527-.548v.741a2.858,2.858,0,0,1-1.714.471,2.082,2.082,0,0,1-1.638-.67A2.748,2.748,0,0,1,2006.911,1106.145Zm5.927,10.873a2.785,2.785,0,0,1-.794,2.12,3.21,3.21,0,0,1-2.3.752,3.654,3.654,0,0,1-1.576-.284v-1.277a3.032,3.032,0,0,0,1.533.443,1.658,1.658,0,0,0,1.192-.406,1.464,1.464,0,0,0,.423-1.1v-.389h-.02a1.694,1.694,0,0,1-1.533.826,1.842,1.842,0,0,1-1.494-.664,2.683,2.683,0,0,1-.552-1.776,2.994,2.994,0,0,1,.616-1.984,2.008,2.008,0,0,1,1.619-.735,1.5,1.5,0,0,1,1.345.691h.02v-.57h1.518Zm.143-8.432h-.787V1101.3h.787Z" transform="translate(-1941.208 -1097.893)" fill="#fff"/>
    </g>
    <g id="Grupo_46" data-name="Grupo 46" transform="translate(1883.499 1066.666)">
      <path id="Trazado_77" data-name="Trazado 77" d="M2033.144,1065.237h-2.108v-.563h2.108Zm-4.216,0h-2.108v-.563h2.108Zm-4.216,0H2022.6v-.563h2.108Zm-4.216,0h-2.108v-.563h2.108Zm-4.216,0h-2.108v-.563h2.108Zm-4.216,0h-2.108v-.563h2.108Zm-4.216,0h-2.108v-.563h2.108Zm-4.216,0h-2.108v-.563h2.108Zm-4.216,0h-2.108v-.563h2.108Zm-4.216,0h-2.108v-.563h2.108Zm-4.216,0h-2.108v-.563h2.108Zm-4.216,0h-2.108v-.563h2.108Zm-4.216,0h-2.108v-.563h2.108Zm-4.216,0h-2.108v-.563h2.108Zm-4.216,0h-2.108v-.563h2.108Zm-4.216,0H1967.8v-.563h2.108Zm-4.216,0h-2.108v-.563h2.108Zm-4.216,0h-2.108v-.563h2.108Zm-4.216,0h-2.108v-.563h2.108Zm-4.216,0h-2.108v-.563h2.108Zm-4.216,0h-2.108v-.563h2.108Zm-4.216,0H1942.5v-.563h2.108Zm-4.216,0h-2.108v-.563h2.108Zm-4.216,0h-2.108v-.563h2.108Zm-4.216,0h-2.108v-.563h2.108Zm-4.216,0h-2.108v-.563h2.108Zm-4.216,0h-2.108v-.563h2.108Zm-4.216,0h-2.108v-.563h2.108Zm-4.215,0h-2.108v-.563h2.108Zm-4.216,0h-2.108v-.563h2.108Zm-4.216,0h-2.108v-.563h2.108Zm-4.216,0h-2.108v-.563h2.108Zm-4.216,0h-2.108v-.563h2.108Zm-4.216,0h-2.108v-.563h2.108Zm-4.216,0H1887.7v-.563h2.108Zm-4.216,0h-2.108v-.563h2.108Z" transform="translate(-1883.481 -1064.673)" fill="#fff"/>
    </g>
  </g>
</svg>
