<svg id="Rstec" xmlns="http://www.w3.org/2000/svg" width="104.194" height="36.223" viewBox="0 0 104.194 36.223">
  <g id="Grupo_30" data-name="Grupo 30">
    <path id="Trazado_17" data-name="Trazado 17" d="M998.963,656.476,993.148,646.4l5.823-10.069,9.913,0,4.648-8.034-19.2-.008-10.471,18.1,10.456,18.112,19.2.008-4.641-8.037Z" transform="translate(-983.861 -628.294)" fill="#fff"/>
    <path id="Trazado_18" data-name="Trazado 18" d="M1009.884,629.06a.375.375,0,0,0-.708,0l-3.936,6.813c-.195.336-.351.618-.348.625s.166.288.361.625l2.342,4.053c.195.338.035.613-.353.613H996.46a1.291,1.291,0,0,0-1.037.626l-1.6,3.051a1.517,1.517,0,0,0,0,1.252l1.6,3.05a1.291,1.291,0,0,0,1.037.626h10.782c.388,0,.547.277.353.614l-2.355,4.077a1.357,1.357,0,0,0,0,1.225l3.936,6.811a.375.375,0,0,0,.708,0l9.486-16.418a1.363,1.363,0,0,0,0-1.223Z" transform="translate(-977.869 -627.981)" fill="#fff" fill-rule="evenodd"/>
  </g>
  <path id="Trazado_19" data-name="Trazado 19" d="M1011.765,634.992h3.181v1.861a3.984,3.984,0,0,1,1.373-1.671,3.313,3.313,0,0,1,1.875-.57,3.478,3.478,0,0,1,1.508.38l-1.156,3.192a2.551,2.551,0,0,0-1.074-.327,1.7,1.7,0,0,0-1.447,1.061,9.674,9.674,0,0,0-.591,4.155l.013.721v5.975h-3.683Z" transform="translate(-966.847 -624.442)" fill="#fff"/>
  <path id="Trazado_20" data-name="Trazado 20" d="M1027.332,637.057l-2.3,2.3a3.886,3.886,0,0,0-2.542-1.386,1.6,1.6,0,0,0-.979.266.8.8,0,0,0-.354.658.812.812,0,0,0,.225.551,4.189,4.189,0,0,0,1.107.686l1.359.678a8,8,0,0,1,2.951,2.16,4.5,4.5,0,0,1-.646,5.867,5.553,5.553,0,0,1-3.881,1.317,6.17,6.17,0,0,1-5.166-2.526l2.284-2.486a5.269,5.269,0,0,0,1.529,1.228,3.386,3.386,0,0,0,1.557.468,1.85,1.85,0,0,0,1.182-.352,1.022,1.022,0,0,0,.449-.815q0-.855-1.618-1.671l-1.251-.625q-3.588-1.806-3.588-4.523a3.924,3.924,0,0,1,1.352-2.994,4.91,4.91,0,0,1,3.459-1.243,6,6,0,0,1,4.866,2.445Z" transform="translate(-963.587 -624.442)" fill="#fff"/>
  <path id="Trazado_21" data-name="Trazado 21" d="M1026.62,631.523h3.676v5.4h2.182v3.162H1030.3v11.478h-3.676V640.081h-1.886v-3.162h1.886Z" transform="translate(-958.938 -626.325)" fill="#fff"/>
  <path id="Trazado_22" data-name="Trazado 22" d="M1041,640.507h0a3.681,3.681,0,0,0-1.436-1.991,4.176,4.176,0,0,0-2.489-.766,4.4,4.4,0,0,0-2.7.861,4.8,4.8,0,0,0-1.349,1.9Zm3.677,2.894h-11.811a3.932,3.932,0,0,0,1.368,2.482,4.3,4.3,0,0,0,2.835.921,4.906,4.906,0,0,0,3.542-1.439l3.1,1.454a7.308,7.308,0,0,1-2.774,2.428,8.664,8.664,0,0,1-3.839.789,7.588,7.588,0,0,1-5.615-2.173,7.4,7.4,0,0,1-2.168-5.444,7.644,7.644,0,0,1,2.162-5.563,7.259,7.259,0,0,1,5.42-2.213,7.531,7.531,0,0,1,5.629,2.213,8,8,0,0,1,2.168,5.847Z" transform="translate(-956.147 -624.424)" fill="#fff"/>
  <path id="Trazado_23" data-name="Trazado 23" d="M1054.291,637.978l-3.062,1.682a4.546,4.546,0,0,0-3.68-1.6,4.6,4.6,0,0,0-3.337,1.23,4.182,4.182,0,0,0-1.275,3.15,4.045,4.045,0,0,0,1.227,3.049,4.452,4.452,0,0,0,3.223,1.183,4.684,4.684,0,0,0,3.843-1.682l2.9,1.983a8.933,8.933,0,0,1-12.706.774,7.6,7.6,0,0,1,1.845-12.083,8.879,8.879,0,0,1,4.262-1.022,8.654,8.654,0,0,1,3.918.868,7.452,7.452,0,0,1,2.843,2.469" transform="translate(-950.097 -624.424)" fill="#fff"/>
</svg>
